<svg width="12" height="14" viewBox="0 0 12 14" fill="none" xmlns="http://www.w3.org/2000/svg">
<path d="M11 6.20001H10V3.80001C10 2.04001 8.2 0.600006 6 0.600006C3.8 0.600006 2 2.04001 2 3.80001V6.20001H1C0.5 6.20001 0 6.60001 0 7.00001V12.6C0 13 0.5 13.4 1 13.4H11C11.5 13.4 12 13 12 12.6V7.00001C12 6.60001 11.5 6.20001 11 6.20001ZM7 11.8H5L5.4 10.04C4.9 9.88001 4.5 9.40001 4.5 9.00001C4.5 8.36001 5.2 7.80001 6 7.80001C6.8 7.80001 7.5 8.36001 7.5 9.00001C7.5 9.48001 7.2 9.88001 6.6 10.04L7 11.8ZM8 6.20001H4V3.80001C4 2.92001 4.9 2.20001 6 2.20001C7.1 2.20001 8 2.92001 8 3.80001V6.20001Z" fill="white" fill-opacity="0.4"/>
</svg>
