<svg width="16" height="16" viewBox="0 0 16 16" fill="none" xmlns="http://www.w3.org/2000/svg">
<path d="M8 0C10.1217 0 12.1566 0.842855 13.6569 2.34315C15.1571 3.84344 16 5.87827 16 8C16 10.1217 15.1571 12.1566 13.6569 13.6569C12.1566 15.1571 10.1217 16 8 16C5.87827 16 3.84344 15.1571 2.34315 13.6569C0.842855 12.1566 0 10.1217 0 8C0 5.87827 0.842855 3.84344 2.34315 2.34315C3.84344 0.842855 5.87827 0 8 0ZM8 7.02971L6.14171 5.17143C6.01305 5.04276 5.83854 4.97048 5.65657 4.97048C5.47461 4.97048 5.3001 5.04276 5.17143 5.17143C5.04276 5.3001 4.97048 5.47461 4.97048 5.65657C4.97048 5.83854 5.04276 6.01305 5.17143 6.14171L7.02971 8L5.17143 9.85829C5.10772 9.922 5.05718 9.99763 5.0227 10.0809C4.98822 10.1641 4.97048 10.2533 4.97048 10.3434C4.97048 10.4335 4.98822 10.5227 5.0227 10.606C5.05718 10.6892 5.10772 10.7649 5.17143 10.8286C5.23514 10.8923 5.31077 10.9428 5.39401 10.9773C5.47726 11.0118 5.56647 11.0295 5.65657 11.0295C5.74667 11.0295 5.83589 11.0118 5.91913 10.9773C6.00237 10.9428 6.078 10.8923 6.14171 10.8286L8 8.97029L9.85829 10.8286C9.922 10.8923 9.99763 10.9428 10.0809 10.9773C10.1641 11.0118 10.2533 11.0295 10.3434 11.0295C10.4335 11.0295 10.5227 11.0118 10.606 10.9773C10.6892 10.9428 10.7649 10.8923 10.8286 10.8286C10.8923 10.7649 10.9428 10.6892 10.9773 10.606C11.0118 10.5227 11.0295 10.4335 11.0295 10.3434C11.0295 10.2533 11.0118 10.1641 10.9773 10.0809C10.9428 9.99763 10.8923 9.922 10.8286 9.85829L8.97029 8L10.8286 6.14171C10.8923 6.078 10.9428 6.00237 10.9773 5.91913C11.0118 5.83589 11.0295 5.74667 11.0295 5.65657C11.0295 5.56647 11.0118 5.47726 10.9773 5.39401C10.9428 5.31077 10.8923 5.23514 10.8286 5.17143C10.7649 5.10772 10.6892 5.05718 10.606 5.0227C10.5227 4.98822 10.4335 4.97048 10.3434 4.97048C10.2533 4.97048 10.1641 4.98822 10.0809 5.0227C9.99763 5.05718 9.922 5.10772 9.85829 5.17143L8 7.02971Z" fill="white" fill-opacity="0.4"/>
</svg>
